<mxfile host="app.diagrams.net" modified="2021-06-20T14:22:19.528Z" agent="5.0 (Windows)" etag="_ns3cWC1S3gahPCY7IyQ" version="14.7.10" type="github">
  <diagram id="HHIz_TGxV2MsAH-5GTJD" name="Page-1">
    <mxGraphModel dx="1422" dy="780" grid="1" gridSize="10" guides="1" tooltips="1" connect="1" arrows="1" fold="1" page="1" pageScale="1" pageWidth="1169" pageHeight="827" math="0" shadow="0">
      <root>
        <mxCell id="0" />
        <mxCell id="1" parent="0" />
        <mxCell id="-79-vseuFZf2NtWAaOzn-1" style="edgeStyle=orthogonalEdgeStyle;rounded=0;orthogonalLoop=1;jettySize=auto;html=1;entryX=0.632;entryY=0.077;entryDx=0;entryDy=0;entryPerimeter=0;" parent="1" source="-79-vseuFZf2NtWAaOzn-2" target="-79-vseuFZf2NtWAaOzn-50" edge="1">
          <mxGeometry relative="1" as="geometry" />
        </mxCell>
        <mxCell id="-79-vseuFZf2NtWAaOzn-2" value="order" style="shape=table;startSize=20;container=1;collapsible=1;childLayout=tableLayout;fixedRows=1;rowLines=0;fontStyle=1;align=center;resizeLast=1;" parent="1" vertex="1">
          <mxGeometry x="1112.5" y="80" width="260" height="240" as="geometry" />
        </mxCell>
        <mxCell id="-79-vseuFZf2NtWAaOzn-3" value="" style="shape=partialRectangle;collapsible=0;dropTarget=0;pointerEvents=0;fillColor=none;points=[[0,0.5],[1,0.5]];portConstraint=eastwest;top=0;left=0;right=0;bottom=1;" parent="-79-vseuFZf2NtWAaOzn-2" vertex="1">
          <mxGeometry y="20" width="260" height="30" as="geometry" />
        </mxCell>
        <mxCell id="-79-vseuFZf2NtWAaOzn-4" value="PK" style="shape=partialRectangle;overflow=hidden;connectable=0;fillColor=none;top=0;left=0;bottom=0;right=0;fontStyle=1;" parent="-79-vseuFZf2NtWAaOzn-3" vertex="1">
          <mxGeometry width="40" height="30" as="geometry" />
        </mxCell>
        <mxCell id="-79-vseuFZf2NtWAaOzn-5" value="order_idÂ int NOT NULL " style="shape=partialRectangle;overflow=hidden;connectable=0;fillColor=none;top=0;left=0;bottom=0;right=0;align=left;spacingLeft=6;fontStyle=5;" parent="-79-vseuFZf2NtWAaOzn-3" vertex="1">
          <mxGeometry x="40" width="220" height="30" as="geometry" />
        </mxCell>
        <mxCell id="-79-vseuFZf2NtWAaOzn-6" value="" style="shape=partialRectangle;collapsible=0;dropTarget=0;pointerEvents=0;fillColor=none;points=[[0,0.5],[1,0.5]];portConstraint=eastwest;top=0;left=0;right=0;bottom=0;" parent="-79-vseuFZf2NtWAaOzn-2" vertex="1">
          <mxGeometry y="50" width="260" height="30" as="geometry" />
        </mxCell>
        <mxCell id="-79-vseuFZf2NtWAaOzn-7" value="" style="shape=partialRectangle;overflow=hidden;connectable=0;fillColor=none;top=0;left=0;bottom=0;right=0;" parent="-79-vseuFZf2NtWAaOzn-6" vertex="1">
          <mxGeometry width="40" height="30" as="geometry" />
        </mxCell>
        <mxCell id="-79-vseuFZf2NtWAaOzn-8" value="seller_id int NOT NULL" style="shape=partialRectangle;overflow=hidden;connectable=0;fillColor=none;top=0;left=0;bottom=0;right=0;align=left;spacingLeft=6;" parent="-79-vseuFZf2NtWAaOzn-6" vertex="1">
          <mxGeometry x="40" width="220" height="30" as="geometry" />
        </mxCell>
        <mxCell id="-79-vseuFZf2NtWAaOzn-9" value="" style="shape=partialRectangle;collapsible=0;dropTarget=0;pointerEvents=0;fillColor=none;points=[[0,0.5],[1,0.5]];portConstraint=eastwest;top=0;left=0;right=0;bottom=0;" parent="-79-vseuFZf2NtWAaOzn-2" vertex="1">
          <mxGeometry y="80" width="260" height="30" as="geometry" />
        </mxCell>
        <mxCell id="-79-vseuFZf2NtWAaOzn-10" value="" style="shape=partialRectangle;overflow=hidden;connectable=0;fillColor=none;top=0;left=0;bottom=0;right=0;" parent="-79-vseuFZf2NtWAaOzn-9" vertex="1">
          <mxGeometry width="40" height="30" as="geometry" />
        </mxCell>
        <mxCell id="-79-vseuFZf2NtWAaOzn-11" value="price_articles float NOT NULL" style="shape=partialRectangle;overflow=hidden;connectable=0;fillColor=none;top=0;left=0;bottom=0;right=0;align=left;spacingLeft=6;" parent="-79-vseuFZf2NtWAaOzn-9" vertex="1">
          <mxGeometry x="40" width="220" height="30" as="geometry" />
        </mxCell>
        <mxCell id="-79-vseuFZf2NtWAaOzn-12" value="article" style="shape=table;startSize=30;container=1;collapsible=1;childLayout=tableLayout;fixedRows=1;rowLines=0;fontStyle=1;align=center;resizeLast=1;" parent="1" vertex="1">
          <mxGeometry x="832.5" y="560" width="250" height="190" as="geometry" />
        </mxCell>
        <mxCell id="-79-vseuFZf2NtWAaOzn-13" value="" style="shape=partialRectangle;collapsible=0;dropTarget=0;pointerEvents=0;fillColor=none;points=[[0,0.5],[1,0.5]];portConstraint=eastwest;top=0;left=0;right=0;bottom=1;" parent="-79-vseuFZf2NtWAaOzn-12" vertex="1">
          <mxGeometry y="30" width="250" height="30" as="geometry" />
        </mxCell>
        <mxCell id="-79-vseuFZf2NtWAaOzn-14" value="PK" style="shape=partialRectangle;overflow=hidden;connectable=0;fillColor=none;top=0;left=0;bottom=0;right=0;fontStyle=1;" parent="-79-vseuFZf2NtWAaOzn-13" vertex="1">
          <mxGeometry width="30" height="30" as="geometry" />
        </mxCell>
        <mxCell id="-79-vseuFZf2NtWAaOzn-15" value="article_id int NOT NULL " style="shape=partialRectangle;overflow=hidden;connectable=0;fillColor=none;top=0;left=0;bottom=0;right=0;align=left;spacingLeft=6;fontStyle=5;" parent="-79-vseuFZf2NtWAaOzn-13" vertex="1">
          <mxGeometry x="30" width="220" height="30" as="geometry" />
        </mxCell>
        <mxCell id="-79-vseuFZf2NtWAaOzn-16" value="" style="shape=partialRectangle;collapsible=0;dropTarget=0;pointerEvents=0;fillColor=none;points=[[0,0.5],[1,0.5]];portConstraint=eastwest;top=0;left=0;right=0;bottom=0;" parent="-79-vseuFZf2NtWAaOzn-12" vertex="1">
          <mxGeometry y="60" width="250" height="30" as="geometry" />
        </mxCell>
        <mxCell id="-79-vseuFZf2NtWAaOzn-17" value="" style="shape=partialRectangle;overflow=hidden;connectable=0;fillColor=none;top=0;left=0;bottom=0;right=0;" parent="-79-vseuFZf2NtWAaOzn-16" vertex="1">
          <mxGeometry width="30" height="30" as="geometry" />
        </mxCell>
        <mxCell id="-79-vseuFZf2NtWAaOzn-18" value="name char(20) NOT NULL" style="shape=partialRectangle;overflow=hidden;connectable=0;fillColor=none;top=0;left=0;bottom=0;right=0;align=left;spacingLeft=6;" parent="-79-vseuFZf2NtWAaOzn-16" vertex="1">
          <mxGeometry x="30" width="220" height="30" as="geometry" />
        </mxCell>
        <mxCell id="-79-vseuFZf2NtWAaOzn-19" value="" style="shape=partialRectangle;collapsible=0;dropTarget=0;pointerEvents=0;fillColor=none;points=[[0,0.5],[1,0.5]];portConstraint=eastwest;top=0;left=0;right=0;bottom=0;" parent="-79-vseuFZf2NtWAaOzn-12" vertex="1">
          <mxGeometry y="90" width="250" height="30" as="geometry" />
        </mxCell>
        <mxCell id="-79-vseuFZf2NtWAaOzn-20" value="" style="shape=partialRectangle;overflow=hidden;connectable=0;fillColor=none;top=0;left=0;bottom=0;right=0;" parent="-79-vseuFZf2NtWAaOzn-19" vertex="1">
          <mxGeometry width="30" height="30" as="geometry" />
        </mxCell>
        <mxCell id="-79-vseuFZf2NtWAaOzn-21" value="description char(300) NOT NULL" style="shape=partialRectangle;overflow=hidden;connectable=0;fillColor=none;top=0;left=0;bottom=0;right=0;align=left;spacingLeft=6;" parent="-79-vseuFZf2NtWAaOzn-19" vertex="1">
          <mxGeometry x="30" width="220" height="30" as="geometry" />
        </mxCell>
        <mxCell id="-79-vseuFZf2NtWAaOzn-22" style="rounded=0;orthogonalLoop=1;jettySize=auto;html=1;entryX=0;entryY=0.5;entryDx=0;entryDy=0;" parent="1" source="-79-vseuFZf2NtWAaOzn-23" target="-79-vseuFZf2NtWAaOzn-56" edge="1">
          <mxGeometry relative="1" as="geometry" />
        </mxCell>
        <mxCell id="-79-vseuFZf2NtWAaOzn-23" value="user" style="shape=table;startSize=30;container=1;collapsible=1;childLayout=tableLayout;fixedRows=1;rowLines=0;fontStyle=1;align=center;resizeLast=1;" parent="1" vertex="1">
          <mxGeometry x="382.5" y="40" width="250" height="220" as="geometry" />
        </mxCell>
        <mxCell id="-79-vseuFZf2NtWAaOzn-24" value="" style="shape=partialRectangle;collapsible=0;dropTarget=0;pointerEvents=0;fillColor=none;points=[[0,0.5],[1,0.5]];portConstraint=eastwest;top=0;left=0;right=0;bottom=1;" parent="-79-vseuFZf2NtWAaOzn-23" vertex="1">
          <mxGeometry y="30" width="250" height="30" as="geometry" />
        </mxCell>
        <mxCell id="-79-vseuFZf2NtWAaOzn-25" value="PK" style="shape=partialRectangle;overflow=hidden;connectable=0;fillColor=none;top=0;left=0;bottom=0;right=0;fontStyle=1;" parent="-79-vseuFZf2NtWAaOzn-24" vertex="1">
          <mxGeometry width="30" height="30" as="geometry" />
        </mxCell>
        <mxCell id="-79-vseuFZf2NtWAaOzn-26" value="user_id int NOT NULL " style="shape=partialRectangle;overflow=hidden;connectable=0;fillColor=none;top=0;left=0;bottom=0;right=0;align=left;spacingLeft=6;fontStyle=5;" parent="-79-vseuFZf2NtWAaOzn-24" vertex="1">
          <mxGeometry x="30" width="220" height="30" as="geometry" />
        </mxCell>
        <mxCell id="-79-vseuFZf2NtWAaOzn-27" value="" style="shape=partialRectangle;collapsible=0;dropTarget=0;pointerEvents=0;fillColor=none;points=[[0,0.5],[1,0.5]];portConstraint=eastwest;top=0;left=0;right=0;bottom=0;" parent="-79-vseuFZf2NtWAaOzn-23" vertex="1">
          <mxGeometry y="60" width="250" height="30" as="geometry" />
        </mxCell>
        <mxCell id="-79-vseuFZf2NtWAaOzn-28" value="" style="shape=partialRectangle;overflow=hidden;connectable=0;fillColor=none;top=0;left=0;bottom=0;right=0;" parent="-79-vseuFZf2NtWAaOzn-27" vertex="1">
          <mxGeometry width="30" height="30" as="geometry" />
        </mxCell>
        <mxCell id="-79-vseuFZf2NtWAaOzn-29" value="name char(50) NOT NULL" style="shape=partialRectangle;overflow=hidden;connectable=0;fillColor=none;top=0;left=0;bottom=0;right=0;align=left;spacingLeft=6;" parent="-79-vseuFZf2NtWAaOzn-27" vertex="1">
          <mxGeometry x="30" width="220" height="30" as="geometry" />
        </mxCell>
        <mxCell id="-79-vseuFZf2NtWAaOzn-30" value="category enum NOT NULL" style="shape=partialRectangle;overflow=hidden;connectable=0;fillColor=none;top=0;left=0;bottom=0;right=0;align=left;spacingLeft=6;" parent="1" vertex="1">
          <mxGeometry x="862.5" y="675" width="220" height="30" as="geometry" />
        </mxCell>
        <mxCell id="-79-vseuFZf2NtWAaOzn-31" value="photo char(50) NOT NULL" style="shape=partialRectangle;overflow=hidden;connectable=0;fillColor=none;top=0;left=0;bottom=0;right=0;align=left;spacingLeft=6;" parent="1" vertex="1">
          <mxGeometry x="862.5" y="705" width="220" height="30" as="geometry" />
        </mxCell>
        <mxCell id="-79-vseuFZf2NtWAaOzn-32" style="edgeStyle=orthogonalEdgeStyle;rounded=0;orthogonalLoop=1;jettySize=auto;html=1;" parent="1" source="-79-vseuFZf2NtWAaOzn-33" target="-79-vseuFZf2NtWAaOzn-52" edge="1">
          <mxGeometry relative="1" as="geometry">
            <Array as="points">
              <mxPoint x="517.5" y="645" />
            </Array>
          </mxGeometry>
        </mxCell>
        <mxCell id="-79-vseuFZf2NtWAaOzn-33" value="seller" style="shape=table;startSize=30;container=1;collapsible=1;childLayout=tableLayout;fixedRows=1;rowLines=0;fontStyle=1;align=center;resizeLast=1;" parent="1" vertex="1">
          <mxGeometry x="392.5" y="335" width="250" height="125" as="geometry" />
        </mxCell>
        <mxCell id="-79-vseuFZf2NtWAaOzn-34" value="" style="shape=partialRectangle;collapsible=0;dropTarget=0;pointerEvents=0;fillColor=none;points=[[0,0.5],[1,0.5]];portConstraint=eastwest;top=0;left=0;right=0;bottom=1;" parent="-79-vseuFZf2NtWAaOzn-33" vertex="1">
          <mxGeometry y="30" width="250" height="30" as="geometry" />
        </mxCell>
        <mxCell id="-79-vseuFZf2NtWAaOzn-35" value="PK" style="shape=partialRectangle;overflow=hidden;connectable=0;fillColor=none;top=0;left=0;bottom=0;right=0;fontStyle=1;" parent="-79-vseuFZf2NtWAaOzn-34" vertex="1">
          <mxGeometry width="30" height="30" as="geometry" />
        </mxCell>
        <mxCell id="-79-vseuFZf2NtWAaOzn-36" value="seller_id int NOT NULL " style="shape=partialRectangle;overflow=hidden;connectable=0;fillColor=none;top=0;left=0;bottom=0;right=0;align=left;spacingLeft=6;fontStyle=5;" parent="-79-vseuFZf2NtWAaOzn-34" vertex="1">
          <mxGeometry x="30" width="220" height="30" as="geometry" />
        </mxCell>
        <mxCell id="-79-vseuFZf2NtWAaOzn-37" value="" style="shape=partialRectangle;collapsible=0;dropTarget=0;pointerEvents=0;fillColor=none;points=[[0,0.5],[1,0.5]];portConstraint=eastwest;top=0;left=0;right=0;bottom=0;" parent="-79-vseuFZf2NtWAaOzn-33" vertex="1">
          <mxGeometry y="60" width="250" height="30" as="geometry" />
        </mxCell>
        <mxCell id="-79-vseuFZf2NtWAaOzn-38" value="" style="shape=partialRectangle;overflow=hidden;connectable=0;fillColor=none;top=0;left=0;bottom=0;right=0;" parent="-79-vseuFZf2NtWAaOzn-37" vertex="1">
          <mxGeometry width="30" height="30" as="geometry" />
        </mxCell>
        <mxCell id="-79-vseuFZf2NtWAaOzn-39" value="name char(20) NOT NULL" style="shape=partialRectangle;overflow=hidden;connectable=0;fillColor=none;top=0;left=0;bottom=0;right=0;align=left;spacingLeft=6;" parent="-79-vseuFZf2NtWAaOzn-37" vertex="1">
          <mxGeometry x="30" width="220" height="30" as="geometry" />
        </mxCell>
        <mxCell id="-79-vseuFZf2NtWAaOzn-40" value="" style="shape=partialRectangle;collapsible=0;dropTarget=0;pointerEvents=0;fillColor=none;points=[[0,0.5],[1,0.5]];portConstraint=eastwest;top=0;left=0;right=0;bottom=0;" parent="-79-vseuFZf2NtWAaOzn-33" vertex="1">
          <mxGeometry y="90" width="250" height="30" as="geometry" />
        </mxCell>
        <mxCell id="-79-vseuFZf2NtWAaOzn-41" value="" style="shape=partialRectangle;overflow=hidden;connectable=0;fillColor=none;top=0;left=0;bottom=0;right=0;" parent="-79-vseuFZf2NtWAaOzn-40" vertex="1">
          <mxGeometry width="30" height="30" as="geometry" />
        </mxCell>
        <mxCell id="-79-vseuFZf2NtWAaOzn-42" value="rating int NOT NULL" style="shape=partialRectangle;overflow=hidden;connectable=0;fillColor=none;top=0;left=0;bottom=0;right=0;align=left;spacingLeft=6;" parent="-79-vseuFZf2NtWAaOzn-40" vertex="1">
          <mxGeometry x="30" width="220" height="30" as="geometry" />
        </mxCell>
        <mxCell id="-79-vseuFZf2NtWAaOzn-43" value="surname char(50) NOT NULL" style="shape=partialRectangle;overflow=hidden;connectable=0;fillColor=none;top=0;left=0;bottom=0;right=0;align=left;spacingLeft=6;" parent="1" vertex="1">
          <mxGeometry x="412.5" y="130" width="220" height="30" as="geometry" />
        </mxCell>
        <mxCell id="-79-vseuFZf2NtWAaOzn-44" value="email char(50) NOT NULL" style="shape=partialRectangle;overflow=hidden;connectable=0;fillColor=none;top=0;left=0;bottom=0;right=0;align=left;spacingLeft=6;" parent="1" vertex="1">
          <mxGeometry x="412.5" y="160" width="220" height="30" as="geometry" />
        </mxCell>
        <mxCell id="-79-vseuFZf2NtWAaOzn-45" value="psw_hash char(50) NOT NULL" style="shape=partialRectangle;overflow=hidden;connectable=0;fillColor=none;top=0;left=0;bottom=0;right=0;align=left;spacingLeft=6;" parent="1" vertex="1">
          <mxGeometry x="412.5" y="190" width="220" height="30" as="geometry" />
        </mxCell>
        <mxCell id="-79-vseuFZf2NtWAaOzn-46" value="shipment_addr char(100) NOT NULL" style="shape=partialRectangle;overflow=hidden;connectable=0;fillColor=none;top=0;left=0;bottom=0;right=0;align=left;spacingLeft=6;" parent="1" vertex="1">
          <mxGeometry x="412.5" y="220" width="220" height="30" as="geometry" />
        </mxCell>
        <mxCell id="-79-vseuFZf2NtWAaOzn-47" value="shipment_date date NOT NULL" style="shape=partialRectangle;overflow=hidden;connectable=0;fillColor=none;top=0;left=0;bottom=0;right=0;align=left;spacingLeft=6;" parent="1" vertex="1">
          <mxGeometry x="1152.5" y="220" width="220" height="30" as="geometry" />
        </mxCell>
        <mxCell id="-79-vseuFZf2NtWAaOzn-48" value="FK1" style="shape=partialRectangle;overflow=hidden;connectable=0;fillColor=none;top=0;left=0;bottom=0;right=0;" parent="1" vertex="1">
          <mxGeometry x="1120" y="130" width="30" height="30" as="geometry" />
        </mxCell>
        <mxCell id="-79-vseuFZf2NtWAaOzn-49" style="edgeStyle=none;rounded=0;orthogonalLoop=1;jettySize=auto;html=1;entryX=1.002;entryY=0.206;entryDx=0;entryDy=0;entryPerimeter=0;" parent="1" source="-79-vseuFZf2NtWAaOzn-50" target="-79-vseuFZf2NtWAaOzn-16" edge="1">
          <mxGeometry relative="1" as="geometry" />
        </mxCell>
        <mxCell id="-79-vseuFZf2NtWAaOzn-50" value="Buy" style="shape=rhombus;perimeter=rhombusPerimeter;whiteSpace=wrap;html=1;align=center;" parent="1" vertex="1">
          <mxGeometry x="1142.5" y="510" width="120" height="60" as="geometry" />
        </mxCell>
        <mxCell id="-79-vseuFZf2NtWAaOzn-51" style="edgeStyle=none;rounded=0;orthogonalLoop=1;jettySize=auto;html=1;exitX=1;exitY=0.5;exitDx=0;exitDy=0;entryX=0.004;entryY=0.733;entryDx=0;entryDy=0;entryPerimeter=0;" parent="1" source="-79-vseuFZf2NtWAaOzn-52" target="-79-vseuFZf2NtWAaOzn-16" edge="1">
          <mxGeometry relative="1" as="geometry" />
        </mxCell>
        <mxCell id="-79-vseuFZf2NtWAaOzn-52" value="Sell" style="shape=rhombus;perimeter=rhombusPerimeter;whiteSpace=wrap;html=1;align=center;" parent="1" vertex="1">
          <mxGeometry x="562.5" y="615" width="120" height="60" as="geometry" />
        </mxCell>
        <mxCell id="-79-vseuFZf2NtWAaOzn-53" value="user_id int NOT NULL " style="shape=partialRectangle;overflow=hidden;connectable=0;fillColor=none;top=0;left=0;bottom=0;right=0;align=left;spacingLeft=6;fontStyle=0;" parent="1" vertex="1">
          <mxGeometry x="1152.5" y="250" width="220" height="30" as="geometry" />
        </mxCell>
        <mxCell id="-79-vseuFZf2NtWAaOzn-54" value="FK2" style="shape=partialRectangle;overflow=hidden;connectable=0;fillColor=none;top=0;left=0;bottom=0;right=0;" parent="1" vertex="1">
          <mxGeometry x="1120" y="250" width="30" height="30" as="geometry" />
        </mxCell>
        <mxCell id="-79-vseuFZf2NtWAaOzn-55" style="edgeStyle=none;rounded=0;orthogonalLoop=1;jettySize=auto;html=1;entryX=-0.012;entryY=0;entryDx=0;entryDy=0;entryPerimeter=0;" parent="1" source="-79-vseuFZf2NtWAaOzn-56" target="-79-vseuFZf2NtWAaOzn-6" edge="1">
          <mxGeometry relative="1" as="geometry" />
        </mxCell>
        <mxCell id="-79-vseuFZf2NtWAaOzn-56" value="Confirm" style="shape=rhombus;perimeter=rhombusPerimeter;whiteSpace=wrap;html=1;align=center;strokeColor=#000000;" parent="1" vertex="1">
          <mxGeometry x="812.5" y="110" width="120" height="60" as="geometry" />
        </mxCell>
        <mxCell id="-79-vseuFZf2NtWAaOzn-57" value="price int NOT_NULL" style="shape=partialRectangle;connectable=0;fillColor=none;top=0;left=0;bottom=0;right=0;align=left;spacingLeft=6;overflow=hidden;" parent="1" vertex="1">
          <mxGeometry x="562.5" y="581" width="195" height="20" as="geometry" />
        </mxCell>
        <mxCell id="-79-vseuFZf2NtWAaOzn-58" value="quantity_article int NOT_NULL" style="shape=partialRectangle;connectable=0;fillColor=none;top=0;left=0;bottom=0;right=0;align=left;spacingLeft=6;overflow=hidden;" parent="1" vertex="1">
          <mxGeometry x="1010" y="450" width="190" height="40" as="geometry" />
        </mxCell>
        <mxCell id="-79-vseuFZf2NtWAaOzn-59" style="edgeStyle=orthogonalEdgeStyle;rounded=0;orthogonalLoop=1;jettySize=auto;html=1;entryX=0;entryY=0.75;entryDx=0;entryDy=0;" parent="1" source="-79-vseuFZf2NtWAaOzn-60" target="-79-vseuFZf2NtWAaOzn-2" edge="1">
          <mxGeometry relative="1" as="geometry" />
        </mxCell>
        <mxCell id="-79-vseuFZf2NtWAaOzn-60" value="Ship" style="shape=rhombus;perimeter=rhombusPerimeter;whiteSpace=wrap;html=1;align=center;" parent="1" vertex="1">
          <mxGeometry x="912.5" y="185" width="120" height="60" as="geometry" />
        </mxCell>
        <mxCell id="-79-vseuFZf2NtWAaOzn-61" style="edgeStyle=orthogonalEdgeStyle;rounded=0;orthogonalLoop=1;jettySize=auto;html=1;" parent="1" source="-79-vseuFZf2NtWAaOzn-37" target="-79-vseuFZf2NtWAaOzn-60" edge="1">
          <mxGeometry relative="1" as="geometry" />
        </mxCell>
        <mxCell id="-79-vseuFZf2NtWAaOzn-62" value="shipping_policy" style="shape=table;startSize=30;container=1;collapsible=1;childLayout=tableLayout;fixedRows=1;rowLines=0;fontStyle=1;align=center;resizeLast=1;" parent="1" vertex="1">
          <mxGeometry x="50" y="455" width="270" height="160" as="geometry" />
        </mxCell>
        <mxCell id="-79-vseuFZf2NtWAaOzn-63" value="" style="shape=partialRectangle;collapsible=0;dropTarget=0;pointerEvents=0;fillColor=none;top=0;left=0;bottom=1;right=0;points=[[0,0.5],[1,0.5]];portConstraint=eastwest;" parent="-79-vseuFZf2NtWAaOzn-62" vertex="1">
          <mxGeometry y="30" width="270" height="30" as="geometry" />
        </mxCell>
        <mxCell id="-79-vseuFZf2NtWAaOzn-64" value="PK" style="shape=partialRectangle;connectable=0;fillColor=none;top=0;left=0;bottom=0;right=0;fontStyle=1;overflow=hidden;" parent="-79-vseuFZf2NtWAaOzn-63" vertex="1">
          <mxGeometry width="30" height="30" as="geometry" />
        </mxCell>
        <mxCell id="-79-vseuFZf2NtWAaOzn-65" value="shipping_policy_id_id int NOT_NULL" style="shape=partialRectangle;connectable=0;fillColor=none;top=0;left=0;bottom=0;right=0;align=left;spacingLeft=6;fontStyle=5;overflow=hidden;" parent="-79-vseuFZf2NtWAaOzn-63" vertex="1">
          <mxGeometry x="30" width="240" height="30" as="geometry" />
        </mxCell>
        <mxCell id="-79-vseuFZf2NtWAaOzn-66" value="" style="shape=partialRectangle;collapsible=0;dropTarget=0;pointerEvents=0;fillColor=none;top=0;left=0;bottom=0;right=0;points=[[0,0.5],[1,0.5]];portConstraint=eastwest;" parent="-79-vseuFZf2NtWAaOzn-62" vertex="1">
          <mxGeometry y="60" width="270" height="30" as="geometry" />
        </mxCell>
        <mxCell id="-79-vseuFZf2NtWAaOzn-67" value="" style="shape=partialRectangle;connectable=0;fillColor=none;top=0;left=0;bottom=0;right=0;editable=1;overflow=hidden;" parent="-79-vseuFZf2NtWAaOzn-66" vertex="1">
          <mxGeometry width="30" height="30" as="geometry" />
        </mxCell>
        <mxCell id="-79-vseuFZf2NtWAaOzn-68" value="" style="shape=partialRectangle;connectable=0;fillColor=none;top=0;left=0;bottom=0;right=0;align=left;spacingLeft=6;overflow=hidden;" parent="-79-vseuFZf2NtWAaOzn-66" vertex="1">
          <mxGeometry x="30" width="240" height="30" as="geometry" />
        </mxCell>
        <mxCell id="-79-vseuFZf2NtWAaOzn-69" value="" style="shape=partialRectangle;collapsible=0;dropTarget=0;pointerEvents=0;fillColor=none;top=0;left=0;bottom=0;right=0;points=[[0,0.5],[1,0.5]];portConstraint=eastwest;" parent="-79-vseuFZf2NtWAaOzn-62" vertex="1">
          <mxGeometry y="90" width="270" height="30" as="geometry" />
        </mxCell>
        <mxCell id="-79-vseuFZf2NtWAaOzn-70" value="" style="shape=partialRectangle;connectable=0;fillColor=none;top=0;left=0;bottom=0;right=0;editable=1;overflow=hidden;" parent="-79-vseuFZf2NtWAaOzn-69" vertex="1">
          <mxGeometry width="30" height="30" as="geometry" />
        </mxCell>
        <mxCell id="-79-vseuFZf2NtWAaOzn-71" value="" style="shape=partialRectangle;connectable=0;fillColor=none;top=0;left=0;bottom=0;right=0;align=left;spacingLeft=6;overflow=hidden;" parent="-79-vseuFZf2NtWAaOzn-69" vertex="1">
          <mxGeometry x="30" width="240" height="30" as="geometry" />
        </mxCell>
        <mxCell id="-79-vseuFZf2NtWAaOzn-72" style="edgeStyle=none;rounded=0;orthogonalLoop=1;jettySize=auto;html=1;" parent="1" source="-79-vseuFZf2NtWAaOzn-73" target="-79-vseuFZf2NtWAaOzn-62" edge="1">
          <mxGeometry relative="1" as="geometry" />
        </mxCell>
        <mxCell id="-79-vseuFZf2NtWAaOzn-73" value="Establish" style="shape=rhombus;perimeter=rhombusPerimeter;whiteSpace=wrap;html=1;align=center;" parent="1" vertex="1">
          <mxGeometry x="92.5" y="367.5" width="120" height="60" as="geometry" />
        </mxCell>
        <mxCell id="-79-vseuFZf2NtWAaOzn-74" value="min_item int NOT NULL" style="shape=partialRectangle;overflow=hidden;connectable=0;fillColor=none;top=0;left=0;bottom=0;right=0;align=left;spacingLeft=6;" parent="1" vertex="1">
          <mxGeometry x="82.5" y="540" width="220" height="30" as="geometry" />
        </mxCell>
        <mxCell id="-79-vseuFZf2NtWAaOzn-75" value="max_item int" style="shape=partialRectangle;overflow=hidden;connectable=0;fillColor=none;top=0;left=0;bottom=0;right=0;align=left;spacingLeft=6;" parent="1" vertex="1">
          <mxGeometry x="82.5" y="560" width="220" height="30" as="geometry" />
        </mxCell>
        <mxCell id="-79-vseuFZf2NtWAaOzn-76" value="ship_cost float NOT NULL" style="shape=partialRectangle;overflow=hidden;connectable=0;fillColor=none;top=0;left=0;bottom=0;right=0;align=left;spacingLeft=6;" parent="1" vertex="1">
          <mxGeometry x="82.5" y="580" width="220" height="30" as="geometry" />
        </mxCell>
        <mxCell id="-79-vseuFZf2NtWAaOzn-77" value="FK1" style="shape=partialRectangle;overflow=hidden;connectable=0;fillColor=none;top=0;left=0;bottom=0;right=0;" parent="1" vertex="1">
          <mxGeometry x="52.5" y="515" width="30" height="30" as="geometry" />
        </mxCell>
        <mxCell id="-79-vseuFZf2NtWAaOzn-79" style="edgeStyle=none;rounded=0;orthogonalLoop=1;jettySize=auto;html=1;exitX=-0.012;exitY=0.039;exitDx=0;exitDy=0;exitPerimeter=0;entryX=1;entryY=0.5;entryDx=0;entryDy=0;" parent="1" source="-79-vseuFZf2NtWAaOzn-37" target="-79-vseuFZf2NtWAaOzn-73" edge="1">
          <mxGeometry relative="1" as="geometry">
            <mxPoint x="174.627659574468" y="458.936170212766" as="sourcePoint" />
            <mxPoint x="176.17647058823513" y="480" as="targetPoint" />
          </mxGeometry>
        </mxCell>
        <mxCell id="-79-vseuFZf2NtWAaOzn-80" style="edgeStyle=orthogonalEdgeStyle;rounded=0;orthogonalLoop=1;jettySize=auto;html=1;" parent="1" source="-79-vseuFZf2NtWAaOzn-81" target="-79-vseuFZf2NtWAaOzn-12" edge="1">
          <mxGeometry relative="1" as="geometry" />
        </mxCell>
        <mxCell id="-79-vseuFZf2NtWAaOzn-81" value="View" style="shape=rhombus;perimeter=rhombusPerimeter;whiteSpace=wrap;html=1;align=center;strokeColor=#000000;" parent="1" vertex="1">
          <mxGeometry x="792.5" y="290" width="120" height="60" as="geometry" />
        </mxCell>
        <mxCell id="-79-vseuFZf2NtWAaOzn-82" value="" style="endArrow=classic;html=1;entryX=0;entryY=0.5;entryDx=0;entryDy=0;" parent="1" target="-79-vseuFZf2NtWAaOzn-81" edge="1">
          <mxGeometry width="50" height="50" relative="1" as="geometry">
            <mxPoint x="632.5" y="200" as="sourcePoint" />
            <mxPoint x="702.5" y="370" as="targetPoint" />
          </mxGeometry>
        </mxCell>
        <mxCell id="-79-vseuFZf2NtWAaOzn-83" value="seller_id" style="text;html=1;strokeColor=none;fillColor=none;align=center;verticalAlign=middle;whiteSpace=wrap;rounded=0;" parent="1" vertex="1">
          <mxGeometry x="92.5" y="525" width="40" height="20" as="geometry" />
        </mxCell>
        <mxCell id="N72sLh-L1Pf_jayz74gM-1" value="order_date date NOT NULL" style="shape=partialRectangle;overflow=hidden;connectable=0;fillColor=none;top=0;left=0;bottom=0;right=0;align=left;spacingLeft=6;" vertex="1" parent="1">
          <mxGeometry x="1152.5" y="280" width="220" height="30" as="geometry" />
        </mxCell>
        <mxCell id="N72sLh-L1Pf_jayz74gM-2" value="price_shipment float NOT NULL" style="shape=partialRectangle;overflow=hidden;connectable=0;fillColor=none;top=0;left=0;bottom=0;right=0;align=left;spacingLeft=6;" vertex="1" parent="1">
          <mxGeometry x="1152.5" y="190" width="220" height="30" as="geometry" />
        </mxCell>
        <mxCell id="N72sLh-L1Pf_jayz74gM-4" value="" style="endArrow=none;html=1;exitX=0.5;exitY=0;exitDx=0;exitDy=0;" edge="1" parent="1" source="-79-vseuFZf2NtWAaOzn-52">
          <mxGeometry width="50" height="50" relative="1" as="geometry">
            <mxPoint x="690" y="450" as="sourcePoint" />
            <mxPoint x="623" y="600" as="targetPoint" />
          </mxGeometry>
        </mxCell>
        <mxCell id="N72sLh-L1Pf_jayz74gM-5" value="" style="endArrow=none;html=1;entryX=0;entryY=0;entryDx=0;entryDy=0;" edge="1" parent="1" target="-79-vseuFZf2NtWAaOzn-50">
          <mxGeometry width="50" height="50" relative="1" as="geometry">
            <mxPoint x="1100" y="480" as="sourcePoint" />
            <mxPoint x="740" y="400" as="targetPoint" />
          </mxGeometry>
        </mxCell>
      </root>
    </mxGraphModel>
  </diagram>
</mxfile>
